<?xml version="1.0" encoding="utf-8"?>
<!-- Generated by IcoMoon.io -->
<!DOCTYPE svg PUBLIC "-//W3C//DTD SVG 1.1//EN" "http://www.w3.org/Graphics/SVG/1.1/DTD/svg11.dtd">
<svg version="1.1" xmlns="http://www.w3.org/2000/svg" xmlns:xlink="http://www.w3.org/1999/xlink">
    <symbol id="heart" viewBox="0 0 48 48">
      <path d="M34.5 3c-3.606 0-6.496 1.295-9.045 3.845-0.002 0.002-0.003 0.003-0.005 0.005h-0.002l-1.449 1.826-1.449-1.714c-0.002-0.002-0.003-0.003-0.005-0.005h-0.002c-2.55-2.552-5.439-3.956-9.045-3.956s-6.996 1.404-9.546 3.954c-2.549 2.55-3.954 5.94-3.954 9.546 0 3.603 1.403 6.993 3.95 9.541l17.92 18.071c0.563 0.569 1.331 0.888 2.13 0.888s1.567-0.32 2.13-0.888l17.919-18.071c2.547-2.548 3.951-5.937 3.951-9.541 0-3.606-1.406-6.996-3.954-9.546-2.55-2.55-5.94-3.954-9.546-3.954v0z"></path>
  </symbol>
</svg>
